<?xml version="1.0" standalone="no"?><!DOCTYPE svg PUBLIC "-//W3C//DTD SVG 1.1//EN" "http://www.w3.org/Graphics/SVG/1.1/DTD/svg11.dtd"><svg class="icon" width="200px" height="200.00px" viewBox="0 0 1024 1024" version="1.1" xmlns="http://www.w3.org/2000/svg"><path fill="#333333" d="M916.3776 354.524554H702.8736c15.509662-35.446154 33.350892-127.094154 23.079385-210.558031C717.808246 77.642831 678.053415 26.773662 620.268308 7.341292 577.409969-6.955323 532.038892 0.094523 507.604677 24.489354c-29.089477 29.152492-42.661415 84.031015-57.202215 142.146954-9.499569 37.919508-19.196062 77.367138-31.41317 97.752615-35.099569 58.690954-108.591262 85.370092-123.328984 90.135631H194.426092c-19.975877 0-36.068431 15.816862-36.06843 35.446154v496.198892c0 19.629292 16.092554 35.446154 36.06843 35.446154h97.539939C322.213415 937.613785 434.491077 992.492308 564.609969 992.492308h243.365416c40.132923 0 109.174154-15.241846 134.9632-57.351877C968.924554 892.455385 1024 504.485415 1024 461.611323c0.196923-59.069046-58.761846-107.086769-107.6224-107.086769z m-34.910523 544.216615c-5.4272 8.956062-41.109662 22.866708-73.105723 22.866708h-243.554462c-128.764062 0-242.5856-70.884431-243.751384-70.884431H230.691446V425.408985h72.136862c2.906585 0 5.624123-0.953108 8.341661-1.71717 0.582892-0.189046 1.165785 0 1.748677-0.189046 0.196923-0.189046 0.968862-0.378092 1.937723-0.575015 0.968862-0.378092 1.937723-0.378092 2.906585-0.953108 21.9136-7.049846 115.578092-41.353846 163.666708-121.761477 17.455262-29.152492 28.120615-71.837538 39.171938-116.814769 10.279385-41.920985 23.268431-94.129231 38.392123-109.182031 3.489477-2.8672 20.361846-6.671754 41.495631 1.520246 17.258338 6.663877 47.316677 25.529108 53.712738 77.170216 14.154831 113.569477-35.485538 221.609354-35.871507 222.751507a33.973169 33.973169 0 0 0 2.323692 33.539939c6.592985 10.098215 18.030277 16.005908 30.255261 16.005908h265.279016c9.893415 0 35.682462 16.580923 35.682461 36.399261 0.181169 47.458462-55.469292 403.597785-70.403938 437.137723zM88.402708 352.508062H30.972062A30.979938 30.979938 0 0 0 0 383.480123v506.478277a30.972062 30.972062 0 0 0 30.972062 30.972062h57.430646a30.964185 30.964185 0 0 0 30.972061-30.972062V383.480123a30.972062 30.972062 0 0 0-30.972061-30.972061z"  /></svg>