<?xml version="1.0" standalone="no"?><!DOCTYPE svg PUBLIC "-//W3C//DTD SVG 1.1//EN" "http://www.w3.org/Graphics/SVG/1.1/DTD/svg11.dtd"><svg class="icon" width="200px" height="200.00px" viewBox="0 0 1024 1024" version="1.1" xmlns="http://www.w3.org/2000/svg"><path fill="#333333" d="M512.733091 510.452364c-0.116364 0-0.221091 0.034909-0.337455 0.034909s-0.221091-0.034909-0.337455-0.034909c-105.367273 0-191.080727-83.176727-191.080727-185.425455 0-102.423273 85.713455-185.751273 191.080727-185.751273s191.080727 83.328 191.080727 185.751273c0 32.581818-8.785455 64.616727-25.413818 92.637091-6.551273 11.054545-2.920727 25.332364 8.133818 31.895273 11.066182 6.562909 25.344 2.909091 31.883636-8.145455 20.887273-35.211636 31.930182-75.450182 31.930182-116.386909 0-128.093091-106.600727-232.296727-237.626182-232.296727-131.025455 0-237.626182 104.215273-237.626182 232.296727 0 127.906909 106.600727 231.970909 237.626182 231.970909 0.116364 0 0.221091-0.034909 0.337455-0.034909s0.221091 0.034909 0.337455 0.034909c211.735273 0 384 167.563636 384 373.550545 0 12.846545 10.426182 23.272727 23.272727 23.272727s23.272727-10.426182 23.272727-23.272727C943.278545 698.914909 750.138182 510.452364 512.733091 510.452364zM274.292364 580.433455C153.995636 658.688 82.187636 789.573818 82.187636 930.548364c0 12.846545 10.426182 23.272727 23.272727 23.272727s23.272727-10.426182 23.272727-23.272727c0-125.160727 63.906909-241.454545 170.949818-311.086545 10.775273-7.016727 13.824-21.434182 6.807273-32.209455C299.485091 576.488727 285.079273 573.428364 274.292364 580.433455z" /></svg>