<?xml version="1.0" standalone="no"?><!DOCTYPE svg PUBLIC "-//W3C//DTD SVG 1.1//EN" "http://www.w3.org/Graphics/SVG/1.1/DTD/svg11.dtd"><svg class="icon" width="200px" height="200.00px" viewBox="0 0 1024 1024" version="1.1" xmlns="http://www.w3.org/2000/svg"><path fill="#333333" d="M811.5931430305184 141.39218572325922c-13.315251313777777 0-22.19208430933333 8.876834209185184-22.19208430933333 22.19208552296296v619.1591612112592h-554.8021174423703V101.44643420918521h497.1026962962963c13.315251313777777 0 22.19208430933333-8.876834209185184 22.19208552296296-22.19208552296296s-8.876834209185184-22.19208430933333-22.19208552296296-22.19208430933333H234.59894127881478c-24.411293468444445 0-44.384169832296294 19.97287636385185-44.38416861866666 44.384169832296294v838.8608000000002c0 24.411293468444445 19.97287636385185 44.384169832296294 44.38416861866666 44.38416861866666h554.8021174423703c24.411293468444445 0 44.384169832296294-19.97287636385185 44.38416861866666-44.38416861866666v-776.7229629629628c0-11.096042154666666-8.876834209185184-22.19208430933333-22.19208430933333-22.19208552296296z m-576.9942017517037 798.9150484859259v-110.96042397392593h554.8021174423703v110.96042397392593h-554.8021174423703z"  /><path fill="#333333" d="M563.0417948823704 855.9773116491851h-102.08358976474075c-13.315251313777777 0-22.19208430933333 8.876834209185184-22.19208430933333 22.19208552296296s8.876834209185184 22.19208430933333 22.19208430933333 22.19208430933333h102.08358976474075c13.315251313777777 0 22.19208430933333-8.876834209185184 22.19208430933333-22.19208430933333s-11.096042154666666-22.19208430933333-22.19208430933333-22.19208552296296z"  /></svg>